# File created by Blade
# Date/Time:  Tue Jan 27 18:05:41 2015
# Frame Rate: 120.000 fps
#------------------------------------------------------
:FULLY-SPECIFIED
:DEGREES
4237
root -1.180035 31.989317 -7.172684 5.028826 -14.859857 1.129181
Spine -1.732786 -18.401937 -3.762851
Head 17.974654 27.376523 7.998632
LeftShoulder -13.439654 17.848948 9.461392
LeftArm 24.018495 37.352051 -69.404086
LeftForeArm -0.170985 -0.000000 20.583912
LeftHand -11.527573 0.000000 -3.380046
LeftHandThumb1 -26.253704 0.000000 33.147579
RightShoulder -11.576858 9.772645 -40.345866
RightArm 15.968390 31.118896 29.335017
RightForeArm 6.592949 -0.000000 114.193092
RightHand -8.696673 -0.000000 12.053686
RightHandThumb1 -24.326973 -0.000000 -32.862282
LeftUpLeg 0.675744 12.267662 -1.362742
LeftLeg 0.190349 -0.000000 -0.000000
LeftFoot -22.067220 24.706151 -26.921512
LeftToeBase 8.797380 -0.000000 -0.000000
RightUpLeg -8.690750 7.240926 -3.465457
RightLeg 8.825153 -0.000000 -0.000000
RightFoot -13.958792 -4.975241 6.909134
RightToeBase 2.979327 -0.000000 -0.000000
4238
root -1.178821 31.988964 -7.172078 5.024905 -14.971900 1.137718
Spine -1.721828 -18.454569 -3.739845
Head 18.138444 27.563241 8.117615
LeftShoulder -13.517431 17.944831 9.454757
LeftArm 23.849789 37.353098 -69.535996
LeftForeArm -0.077147 -0.000000 20.353644
LeftHand -11.457894 -0.000000 -3.478415
LeftHandThumb1 -26.253704 0.000000 33.147579
RightShoulder -11.676984 9.702148 -40.475358
RightArm 16.062918 28.897644 27.946216
RightForeArm 4.330202 -0.000000 113.307208
RightHand -8.991446 0.000000 12.348288
RightHandThumb1 -24.326973 -0.000000 -32.862282
LeftUpLeg 0.664903 12.372869 -1.379943
LeftLeg 0.242727 -0.000000 -0.000000
LeftFoot -22.096652 24.675454 -26.933673
LeftToeBase 8.857687 -0.000000 -0.000000
RightUpLeg -8.704380 7.314815 -3.483809
RightLeg 8.818946 -0.000000 -0.000000
RightFoot -13.961787 -4.948799 6.903544
RightToeBase 3.040141 -0.000000 -0.000000
4239
root -1.176648 31.988477 -7.172403 5.021356 -15.082961 1.150800
Spine -1.726059 -18.532264 -3.725600
Head 18.369979 27.762011 8.334651
LeftShoulder -13.567879 18.051247 9.444241
LeftArm 23.642391 37.289987 -69.698448
LeftForeArm 0.066583 -0.000000 20.145538
LeftHand -11.578298 0.000000 -3.682682
LeftHandThumb1 -26.253704 0.000000 33.147579
RightShoulder -11.766260 9.610511 -40.628495
RightArm 16.309440 26.651712 26.607901
RightForeArm 2.068467 -0.000000 112.339480
RightHand -9.390460 -0.000000 12.731986
RightHandThumb1 -24.326973 -0.000000 -32.862282
LeftUpLeg 0.652843 12.472365 -1.404080
LeftLeg 0.284766 -0.000000 -0.000000
LeftFoot -22.138651 24.669008 -26.963585
LeftToeBase 8.812563 -0.000000 -0.000000
RightUpLeg -8.727313 7.377868 -3.507808
RightLeg 8.824817 -0.000000 -0.000000
RightFoot -13.939332 -4.913816 6.869007
RightToeBase 2.932754 -0.000000 -0.000000
4240
root -1.175745 31.988126 -7.171353 5.027627 -15.189061 1.153183
Spine -1.733747 -18.577468 -3.703323
Head 18.484764 27.825619 8.478654
LeftShoulder -13.605465 18.155186 9.439651
LeftArm 23.487938 37.319169 -69.812673
LeftForeArm 0.081573 -0.000000 19.883698
LeftHand -11.336173 0.000000 -3.741725
LeftHandThumb1 -26.253704 0.000000 33.147579
RightShoulder -11.876824 9.466654 -40.769972
RightArm 16.573148 24.415104 25.228848
RightForeArm -0.444970 0.000000 111.444349
RightHand -10.067220 -0.000000 13.048263
RightHandThumb1 -24.326973 -0.000000 -32.862282
LeftUpLeg 0.638702 12.593983 -1.417477
LeftLeg 0.321750 -0.000000 -0.000000
LeftFoot -22.158147 24.648230 -26.967185
LeftToeBase 8.840944 -0.000000 -0.000000
RightUpLeg -8.746930 7.431801 -3.520511
RightLeg 8.816648 -0.000000 -0.000000
RightFoot -13.927216 -4.870920 6.860251
RightToeBase 2.967259 -0.000000 -0.000000
4241
root -1.174803 31.987554 -7.171316 5.034176 -15.287526 1.157698
Spine -1.732215 -18.648408 -3.688780
Head 18.604717 27.958857 8.688295
LeftShoulder -13.642384 18.231115 9.422915
LeftArm 23.277267 37.355742 -69.916045
LeftForeArm 0.058033 -0.000000 19.722862
LeftHand -11.368997 -0.000000 -3.787662
LeftHandThumb1 -26.253704 0.000000 33.147579
RightShoulder -11.997945 9.239531 -40.918628
RightArm 16.981770 22.203393 23.880437
RightForeArm -2.833823 -0.000000 110.425644
RightHand -10.276986 0.000000 13.184071
RightHandThumb1 -24.326973 -0.000000 -32.862282
LeftUpLeg 0.624420 12.683270 -1.431852
LeftLeg 0.353205 -0.000000 -0.000000
LeftFoot -22.192048 24.642505 -26.988493
LeftToeBase 8.826387 -0.000000 -0.000000
RightUpLeg -8.767255 7.508675 -3.536786
RightLeg 8.807704 -0.000000 -0.000000
RightFoot -13.923210 -4.848925 6.878156
RightToeBase 2.977926 -0.000000 -0.000000
4242
root -1.172952 31.987171 -7.172830 5.053023 -15.376134 1.160818
Spine -1.763696 -18.760166 -3.673623
Head 18.813693 27.985597 8.955986
LeftShoulder -13.682035 18.339503 9.399420
LeftArm 23.097703 37.363732 -70.019286
LeftForeArm 0.039828 0.000000 19.524704
LeftHand -11.439241 -0.000000 -3.790155
LeftHandThumb1 -26.253704 0.000000 33.147579
RightShoulder -12.107172 8.864256 -41.062501
RightArm 17.577628 20.094353 22.630892
RightForeArm -4.992778 -0.000000 109.279018
RightHand -10.358890 -0.000000 13.742881
RightHandThumb1 -24.326973 -0.000000 -32.862282
LeftUpLeg 0.598213 12.775841 -1.449907
LeftLeg 0.374432 -0.000000 -0.000000
LeftFoot -22.213271 24.625650 -26.997585
LeftToeBase 8.874663 -0.000000 -0.000000
RightUpLeg -8.807298 7.563601 -3.552014
RightLeg 8.809336 -0.000000 -0.000000
RightFoot -13.908375 -4.824873 6.856562
RightToeBase 2.971690 -0.000000 -0.000000
4243
root -1.173323 31.986613 -7.172903 5.060939 -15.457219 1.161717
Spine -1.790724 -18.870289 -3.675292
Head 19.026361 28.071831 9.244584
LeftShoulder -13.694267 18.451364 9.384498
LeftArm 22.892594 37.328778 -70.143665
LeftForeArm 0.089356 -0.000000 19.346720
LeftHand -11.607468 0.000000 -3.912106
LeftHandThumb1 -26.253704 0.000000 33.147579
RightShoulder -12.211995 8.533199 -41.222706
RightArm 18.177622 17.978634 21.404389
RightForeArm -6.617017 -0.000000 108.049155
RightHand -10.350358 0.000000 14.581287
RightHandThumb1 -24.326973 -0.000000 -32.862282
LeftUpLeg 0.584970 12.878957 -1.459956
LeftLeg 0.398739 -0.000000 -0.000000
LeftFoot -22.230750 24.604235 -27.002522
LeftToeBase 8.867622 -0.000000 -0.000000
RightUpLeg -8.825428 7.626840 -3.560382
RightLeg 8.804130 -0.000000 -0.000000
RightFoot -13.908250 -4.812242 6.844931
RightToeBase 2.961069 -0.000000 -0.000000
4244
root -1.173146 31.986315 -7.174583 5.072318 -15.542361 1.162619
Spine -1.791164 -18.961348 -3.699930
Head 19.183937 28.051080 9.604612
LeftShoulder -13.713753 18.505431 9.385476
LeftArm 22.658387 37.335124 -70.281492
LeftForeArm 0.058651 -0.000000 19.166541
LeftHand -11.660015 0.000000 -3.947787
LeftHandThumb1 -26.253704 0.000000 33.147579
RightShoulder -12.384921 8.233331 -41.387378
RightArm 18.884236 15.742596 20.201370
RightForeArm -8.557787 -0.000000 106.715814
RightHand -10.113786 -0.000000 14.623043
RightHandThumb1 -24.326973 -0.000000 -32.862282
LeftUpLeg 0.574469 12.964205 -1.468136
LeftLeg 0.410585 -0.000000 -0.000000
LeftFoot -22.229312 24.580937 -26.983378
LeftToeBase 8.897219 -0.000000 -0.000000
RightUpLeg -8.851311 7.693593 -3.569883
RightLeg 8.795018 -0.000000 -0.000000
RightFoot -13.893345 -4.804867 6.834630
RightToeBase 2.940365 -0.000000 -0.000000
4245
root -1.173795 31.985941 -7.176364 5.083947 -15.617760 1.157438
Spine -1.797817 -19.077610 -3.718603
Head 19.362938 28.054470 9.980876
LeftShoulder -13.764761 18.582548 9.344296
LeftArm 22.483829 37.341068 -70.351571
LeftForeArm 0.070298 -0.000000 18.979110
LeftHand -11.848569 -0.000000 -3.840910
LeftHandThumb1 -26.253704 0.000000 33.147579
RightShoulder -12.488681 8.029418 -41.568891
RightArm 19.497135 13.612194 19.035928
RightForeArm -9.649835 -0.000000 105.415900
RightHand -10.341589 -0.000000 15.102556
RightHandThumb1 -24.326973 -0.000000 -32.862282
LeftUpLeg 0.563613 13.053127 -1.469336
LeftLeg 0.420848 -0.000000 -0.000000
LeftFoot -22.237352 24.558612 -26.988920
LeftToeBase 8.919646 -0.000000 -0.000000
RightUpLeg -8.875888 7.756518 -3.572102
RightLeg 8.791122 -0.000000 -0.000000
RightFoot -13.876758 -4.804170 6.830043
RightToeBase 2.921176 -0.000000 -0.000000
4246
root -1.174652 31.985415 -7.178470 5.093850 -15.697333 1.146647
Spine -1.790799 -19.153468 -3.756096
Head 19.545071 27.974908 10.418568
LeftShoulder -13.760099 18.653804 9.346505
LeftArm 22.286796 37.337747 -70.461215
LeftForeArm 0.098360 -0.000000 18.791036
LeftHand -11.795411 -0.000000 -3.897206
LeftHandThumb1 -26.253704 0.000000 33.147579
RightShoulder -12.629545 7.772649 -41.718442
RightArm 20.210580 11.537267 17.910047
RightForeArm -10.661706 -0.000000 104.018298
RightHand -10.205155 -0.000000 15.389455
RightHandThumb1 -24.326973 -0.000000 -32.862282
LeftUpLeg 0.560814 13.136625 -1.464269
LeftLeg 0.415550 -0.000000 -0.000000
LeftFoot -22.247213 24.574521 -26.991037
LeftToeBase 8.866538 -0.000000 -0.000000
RightUpLeg -8.898817 7.834324 -3.569439
RightLeg 8.787718 -0.000000 -0.000000
RightFoot -13.865776 -4.804491 6.833651
RightToeBase 2.942966 -0.000000 -0.000000
4247
root -1.174952 31.983932 -7.181114 5.111531 -15.787362 1.138530
Spine -1.813165 -19.207442 -3.805822
Head 19.739783 27.828073 10.853321
LeftShoulder -13.733187 18.798790 9.332401
LeftArm 22.186749 37.303286 -70.502055
LeftForeArm 0.069476 0.000000 18.603301
LeftHand -11.877534 0.000000 -3.979512
LeftHandThumb1 -26.253704 0.000000 33.147579
RightShoulder -12.689162 7.484493 -41.833838
RightArm 20.882018 9.552880 16.767735
RightForeArm -11.427789 0.000000 102.647044
RightHand -10.393531 -0.000000 15.673211
RightHandThumb1 -24.326973 -0.000000 -32.862282
LeftUpLeg 0.553616 13.205377 -1.467319
LeftLeg 0.411822 -0.000000 -0.000000
LeftFoot -22.267064 24.566326 -26.991564
LeftToeBase 8.871594 -0.000000 -0.000000
RightUpLeg -8.937480 7.917954 -3.572199
RightLeg 8.795945 -0.000000 -0.000000
RightFoot -13.865650 -4.806722 6.825904
RightToeBase 2.980840 -0.000000 -0.000000
4248
root -1.176382 31.982965 -7.185044 5.126505 -15.870927 1.128543
Spine -1.815354 -19.267606 -3.871062
Head 19.921781 27.713580 11.338681
LeftShoulder -13.747002 18.926775 9.321916
LeftArm 22.135069 37.322963 -70.505334
LeftForeArm -0.002898 -0.000000 18.400013
LeftHand -11.818326 -0.000000 -3.924280
LeftHandThumb1 -26.253704 0.000000 33.147579
RightShoulder -12.738748 7.357793 -41.955143
RightArm 21.476763 7.538381 15.691711
RightForeArm -12.207998 0.000000 101.248566
RightHand -10.121475 -0.000000 15.863654
RightHandThumb1 -24.326973 -0.000000 -32.862282
LeftUpLeg 0.547531 13.248456 -1.465247
LeftLeg 0.395364 -0.000000 -0.000000
LeftFoot -22.274084 24.622268 -26.976408
LeftToeBase 8.848232 -0.000000 -0.000000
RightUpLeg -8.973088 7.973697 -3.569377
RightLeg 8.799811 -0.000000 -0.000000
RightFoot -13.851562 -4.772271 6.836086
RightToeBase 2.938491 -0.000000 -0.000000
4249
root -1.178252 31.981875 -7.187853 5.134758 -15.966726 1.116163
Spine -1.797054 -19.292196 -3.958757
Head 20.080759 27.554634 11.886446
LeftShoulder -13.714673 18.893097 9.367418
LeftArm 21.885119 37.370148 -70.639140
LeftForeArm 0.053502 -0.000000 18.162376
LeftHand -11.760073 -0.000000 -3.968293
LeftHandThumb1 -26.253704 0.000000 33.147579
RightShoulder -12.791452 7.132956 -42.010964
RightArm 22.107860 5.730561 14.616320
RightForeArm -13.008306 -0.000000 99.902884
RightHand -9.978956 -0.000000 16.016147
RightHandThumb1 -24.326973 -0.000000 -32.862282
LeftUpLeg 0.555093 13.334688 -1.455998
LeftLeg 0.376141 -0.000000 -0.000000
LeftFoot -22.295166 24.641417 -26.979889
LeftToeBase 8.853548 -0.000000 -0.000000
RightUpLeg -9.008207 8.028976 -3.563547
RightLeg 8.818128 -0.000000 -0.000000
RightFoot -13.849210 -4.726529 6.834417
RightToeBase 3.012245 -0.000000 -0.000000
